<?xml version="1.0" encoding="UTF-8"?>
<!DOCTYPE svg PUBLIC "-//W3C//DTD SVG 1.1//EN" "http://www.w3.org/Graphics/SVG/1.1/DTD/svg11.dtd">
<svg xmlns="http://www.w3.org/2000/svg" version="1.1" width="300px" height="300px" style="shape-rendering:geometricPrecision; text-rendering:geometricPrecision; image-rendering:optimizeQuality; fill-rule:evenodd; clip-rule:evenodd" xmlns:xlink="http://www.w3.org/1999/xlink">
<g><path style="opacity:1" fill="#fcfcfc" d="M -0.5,-0.5 C 99.5,-0.5 199.5,-0.5 299.5,-0.5C 299.5,99.5 299.5,199.5 299.5,299.5C 199.5,299.5 99.5,299.5 -0.5,299.5C -0.5,199.5 -0.5,99.5 -0.5,-0.5 Z"/></g>
<g><path style="opacity:1" fill="#241f21" d="M 249.5,42.5 C 270.299,61.5845 284.632,84.7511 292.5,112C 197.167,112.667 101.833,112.667 6.5,112C 7.25244,111.329 7.58577,110.496 7.5,109.5C 18.942,110.812 30.6087,111.479 42.5,111.5C 55.7571,111.11 68.5904,111.11 81,111.5C 81.1667,111.167 81.3333,110.833 81.5,110.5C 80.2713,109.719 78.938,109.219 77.5,109C 78.3805,108.292 79.0472,107.458 79.5,106.5C 102.978,76.1702 133.644,64.6702 171.5,72C 176.835,73.667 182.168,75.0003 187.5,76C 182.927,73.5458 178.261,71.3791 173.5,69.5C 175.603,67.6691 177.937,67.0024 180.5,67.5C 180.833,67.1667 181.167,66.8333 181.5,66.5C 180.167,65.8333 178.833,65.1667 177.5,64.5C 177.957,63.7025 178.624,63.3691 179.5,63.5C 183.813,64.3264 187.98,65.6597 192,67.5C 193.579,67.3026 193.745,66.9693 192.5,66.5C 192.281,65.325 192.614,64.325 193.5,63.5C 194.736,64.2458 196.07,64.5792 197.5,64.5C 197.286,62.8561 197.62,61.3561 198.5,60C 200.641,60.0858 202.974,59.9191 205.5,59.5C 205.073,56.2123 205.74,53.2123 207.5,50.5C 206.643,49.5748 205.643,48.9081 204.5,48.5C 199.768,46.134 195.101,43.8007 190.5,41.5C 191.6,40.4415 192.934,39.6082 194.5,39C 187.863,36.6856 187.863,35.6856 194.5,36C 193.944,35.6174 193.611,35.1174 193.5,34.5C 199.435,35.8683 205.102,37.7016 210.5,40C 205.965,37.233 201.299,34.733 196.5,32.5C 197.648,31.8359 198.981,31.6692 200.5,32C 200.989,29.7908 201.989,27.9575 203.5,26.5C 207.156,27.9977 210.822,29.1644 214.5,30C 210.633,27.5667 206.633,25.4 202.5,23.5C 205.963,24.4339 209.63,24.4339 213.5,23.5C 213.351,22.448 213.517,21.448 214,20.5C 217.669,23.3091 221.502,25.6425 225.5,27.5C 225.5,28.8333 225.5,30.1667 225.5,31.5C 228.167,31.5 230.833,31.5 233.5,31.5C 232.629,34.0618 232.629,36.7284 233.5,39.5C 226.8,39.17 220.134,39.5033 213.5,40.5C 213.36,46.7123 213.36,53.0456 213.5,59.5C 214.833,59.5 216.167,59.5 217.5,59.5C 217.5,54.1667 217.5,48.8333 217.5,43.5C 228.248,43.8091 238.915,43.4758 249.5,42.5 Z"/></g>
<g><path style="opacity:1" fill="#e7e6e6" d="M 192.5,66.5 C 193.745,66.9693 193.579,67.3026 192,67.5C 187.98,65.6597 183.813,64.3264 179.5,63.5C 134.997,52.1678 98.4966,64.5011 70,100.5C 81.344,79.1955 98.844,65.0288 122.5,58C 147,51.4015 170.333,54.2349 192.5,66.5 Z"/></g>
<g><path style="opacity:1" fill="#eceaeb" d="M 173.5,69.5 C 178.261,71.3791 182.927,73.5458 187.5,76C 182.168,75.0003 176.835,73.667 171.5,72C 133.644,64.6702 102.978,76.1702 79.5,106.5C 78.9569,106.44 78.6236,106.107 78.5,105.5C 101.389,70.6443 133.056,58.6443 173.5,69.5 Z"/></g>
<g><path style="opacity:1" fill="#262223" d="M 249.5,42.5 C 238.915,43.4758 228.248,43.8091 217.5,43.5C 217.5,48.8333 217.5,54.1667 217.5,59.5C 216.167,59.5 214.833,59.5 213.5,59.5C 213.36,53.0456 213.36,46.7123 213.5,40.5C 220.134,39.5033 226.8,39.17 233.5,39.5C 232.629,36.7284 232.629,34.0618 233.5,31.5C 230.833,31.5 228.167,31.5 225.5,31.5C 225.5,30.1667 225.5,28.8333 225.5,27.5C 221.502,25.6425 217.669,23.3091 214,20.5C 213.517,21.448 213.351,22.448 213.5,23.5C 209.63,24.4339 205.963,24.4339 202.5,23.5C 143.109,0.700187 91.2757,12.0335 47,57.5C 41.6004,63.674 37.2671,70.3407 34,77.5C 73.0118,26.2679 124.178,7.43457 187.5,21C 193.107,22.368 198.441,24.2013 203.5,26.5C 201.989,27.9575 200.989,29.7908 200.5,32C 198.981,31.6692 197.648,31.8359 196.5,32.5C 196.167,32.5 195.833,32.5 195.5,32.5C 148.427,14.2349 105.427,21.0682 66.5,53C 56.5917,61.8659 48.7583,72.0326 43,83.5C 74.1047,42.0371 115.605,23.5371 167.5,28C 176.306,29.2999 184.973,31.1332 193.5,33.5C 193.5,33.8333 193.5,34.1667 193.5,34.5C 193.611,35.1174 193.944,35.6174 194.5,36C 187.863,35.6856 187.863,36.6856 194.5,39C 192.934,39.6082 191.6,40.4415 190.5,41.5C 132.004,22.3866 85.5042,38.0533 51,88.5C 50.3333,89.1667 50.3333,89.8333 51,90.5C 87.7738,42.4666 135.274,27.2999 193.5,45C 196.952,46.2257 200.285,47.7257 203.5,49.5C 204.107,49.3764 204.44,49.0431 204.5,48.5C 205.643,48.9081 206.643,49.5748 207.5,50.5C 205.74,53.2123 205.073,56.2123 205.5,59.5C 202.974,59.9191 200.641,60.0858 198.5,60C 197.62,61.3561 197.286,62.8561 197.5,64.5C 196.07,64.5792 194.736,64.2458 193.5,63.5C 192.614,64.325 192.281,65.325 192.5,66.5C 170.333,54.2349 147,51.4015 122.5,58C 98.844,65.0288 81.344,79.1955 70,100.5C 98.4966,64.5011 134.997,52.1678 179.5,63.5C 178.624,63.3691 177.957,63.7025 177.5,64.5C 178.833,65.1667 180.167,65.8333 181.5,66.5C 181.167,66.8333 180.833,67.1667 180.5,67.5C 177.937,67.0024 175.603,67.6691 173.5,69.5C 133.056,58.6443 101.389,70.6443 78.5,105.5C 78.6236,106.107 78.9569,106.44 79.5,106.5C 79.0472,107.458 78.3805,108.292 77.5,109C 78.938,109.219 80.2713,109.719 81.5,110.5C 81.3333,110.833 81.1667,111.167 81,111.5C 68.5904,111.11 55.7571,111.11 42.5,111.5C 30.6087,111.479 18.942,110.812 7.5,109.5C 16.7396,78.7467 34.4063,53.9134 60.5,35C 112.426,0.0885947 166.759,-3.91141 223.5,23C 233.129,28.3043 241.796,34.8043 249.5,42.5 Z"/></g>
<g><path style="opacity:1" fill="#eceaeb" d="M 131.5,44.5 C 155.427,41.4854 177.761,45.9854 198.5,58C 144.433,37.3907 98.9332,49.224 62,93.5C 63.4092,89.6938 65.4092,86.0271 68,82.5C 84.8128,62.5121 105.98,49.8454 131.5,44.5 Z"/></g>
<g><path style="opacity:1" fill="#c0bcbe" d="M 195.5,32.5 C 195.833,32.5 196.167,32.5 196.5,32.5C 201.299,34.733 205.965,37.233 210.5,40C 205.102,37.7016 199.435,35.8683 193.5,34.5C 193.5,34.1667 193.5,33.8333 193.5,33.5C 194.492,33.6716 195.158,33.3382 195.5,32.5 Z"/></g>
<g><path style="opacity:1" fill="#eae8e9" d="M 190.5,41.5 C 195.101,43.8007 199.768,46.134 204.5,48.5C 204.44,49.0431 204.107,49.3764 203.5,49.5C 200.285,47.7257 196.952,46.2257 193.5,45C 135.274,27.2999 87.7738,42.4666 51,90.5C 50.3333,89.8333 50.3333,89.1667 51,88.5C 85.5042,38.0533 132.004,22.3866 190.5,41.5 Z"/></g>
<g><path style="opacity:1" fill="#e8e7e7" d="M 202.5,23.5 C 206.633,25.4 210.633,27.5667 214.5,30C 210.822,29.1644 207.156,27.9977 203.5,26.5C 198.441,24.2013 193.107,22.368 187.5,21C 124.178,7.43457 73.0118,26.2679 34,77.5C 37.2671,70.3407 41.6004,63.674 47,57.5C 91.2757,12.0335 143.109,0.700187 202.5,23.5 Z"/></g>
<g><path style="opacity:1" fill="#ebeaea" d="M 195.5,32.5 C 195.158,33.3382 194.492,33.6716 193.5,33.5C 184.973,31.1332 176.306,29.2999 167.5,28C 115.605,23.5371 74.1047,42.0371 43,83.5C 48.7583,72.0326 56.5917,61.8659 66.5,53C 105.427,21.0682 148.427,14.2349 195.5,32.5 Z"/></g>
<g><path style="opacity:1" fill="#414141" d="M 32.5,137.5 C 35.4822,137.104 38.1489,137.771 40.5,139.5C 39.6794,143.082 38.6794,143.248 37.5,140C 32.0141,138.175 29.5141,140.008 30,145.5C 32.3333,147.5 34.6667,149.5 37,151.5C 38.1244,156.421 36.2911,159.588 31.5,161C 28.4929,161.301 25.4929,161.135 22.5,160.5C 22.9904,155.087 24.3237,154.587 26.5,159C 32.4931,160.668 34.9931,158.502 34,152.5C 30.3906,150.563 27.8906,147.729 26.5,144C 27.3262,140.676 29.3262,138.51 32.5,137.5 Z"/></g>
<g><path style="opacity:1" fill="#3e3e3e" d="M 125.5,138.5 C 127.628,137.371 129.961,137.204 132.5,138C 131.299,138.903 130.465,140.069 130,141.5C 128.638,147.143 127.472,152.809 126.5,158.5C 131.377,160.644 134.877,159.311 137,154.5C 137.018,156.797 136.851,159.131 136.5,161.5C 131.489,161.666 126.489,161.499 121.5,161C 122.701,160.097 123.535,158.931 124,157.5C 125.246,152.017 126.412,146.517 127.5,141C 127.316,139.624 126.649,138.791 125.5,138.5 Z"/></g>
<g><path style="opacity:1" fill="#414141" d="M 195.5,137.5 C 198.482,137.104 201.149,137.771 203.5,139.5C 202.679,143.082 201.679,143.248 200.5,140C 195.014,138.175 192.514,140.008 193,145.5C 195.333,147.5 197.667,149.5 200,151.5C 201.124,156.421 199.291,159.588 194.5,161C 191.493,161.301 188.493,161.135 185.5,160.5C 185.99,155.087 187.324,154.587 189.5,159C 195.493,160.668 197.993,158.502 197,152.5C 193.391,150.563 190.891,147.729 189.5,144C 190.326,140.676 192.326,138.51 195.5,137.5 Z"/></g>
<g><path style="opacity:1" fill="#444444" d="M 62.5,143.5 C 64.6282,142.371 66.9615,142.204 69.5,143C 68.3333,143.5 67.5,144.333 67,145.5C 65.6071,150.095 65.2738,154.761 66,159.5C 68.8808,161.028 71.2141,160.362 73,157.5C 73.961,153.695 74.7944,149.862 75.5,146C 75.2451,144.674 74.5784,143.674 73.5,143C 75.5,142.333 77.5,142.333 79.5,143C 77.3782,148.578 75.3782,154.245 73.5,160C 69.8084,162.159 66.3084,161.993 63,159.5C 62.4649,154.908 62.9649,150.408 64.5,146C 64.3158,144.624 63.6491,143.791 62.5,143.5 Z"/></g>
<g><path style="opacity:1" fill="#474747" d="M 83.5,143.5 C 85.2232,142.193 87.0565,142.193 89,143.5C 90.383,147.934 92.0496,152.268 94,156.5C 95.0873,153.064 95.9207,149.564 96.5,146C 96.2451,144.674 95.5784,143.674 94.5,143C 96.5,142.333 98.5,142.333 100.5,143C 97.1349,148.636 95.4682,154.803 95.5,161.5C 94.5,161.5 93.5,161.5 92.5,161.5C 91.1692,156.343 89.3359,151.343 87,146.5C 85.6639,149.978 84.8305,153.644 84.5,157.5C 84.5698,158.772 84.9032,159.938 85.5,161C 83.5,161.667 81.5,161.667 79.5,161C 80.6667,160.5 81.5,159.667 82,158.5C 84.0394,153.457 84.5394,148.457 83.5,143.5 Z"/></g>
<g><path style="opacity:1" fill="#424242" d="M 104.5,143.5 C 107.976,142.357 111.642,142.19 115.5,143C 120.582,147.876 120.748,153.042 116,158.5C 114.663,159.765 113.163,160.265 111.5,160C 115.719,156.398 117.219,151.898 116,146.5C 114.005,144.253 111.505,143.253 108.5,143.5C 107.628,149.191 106.628,154.858 105.5,160.5C 107.199,160.34 108.866,160.506 110.5,161C 107.5,161.667 104.5,161.667 101.5,161C 104.558,155.327 105.558,149.494 104.5,143.5 Z"/></g>
<g><path style="opacity:1" fill="#434343" d="M 150.5,142.5 C 151.5,142.5 152.5,142.5 153.5,142.5C 153.334,146.846 153.501,151.179 154,155.5C 154.163,157.676 154.996,159.509 156.5,161C 154.167,161.667 151.833,161.667 149.5,161C 151.192,159.599 151.859,157.766 151.5,155.5C 149.143,155.337 146.81,155.503 144.5,156C 141.833,157.667 141.833,159.333 144.5,161C 142.5,161.667 140.5,161.667 138.5,161C 142.723,154.95 146.723,148.784 150.5,142.5 Z"/></g>
<g><path style="opacity:1" fill="#404040" d="M 169.5,160.5 C 166.36,161.641 163.027,161.808 159.5,161C 162.607,155.264 163.607,149.264 162.5,143C 167.229,142.004 171.729,142.504 176,144.5C 176.876,147.917 175.709,150.417 172.5,152C 174.396,153.808 174.896,155.975 174,158.5C 172.89,160.037 171.39,160.703 169.5,160.5 Z"/></g>
<g><path style="opacity:1" fill="#454545" d="M 204.5,142.5 C 209.833,142.5 215.167,142.5 220.5,142.5C 220.078,147.756 219.078,148.256 217.5,144C 216.207,143.51 214.873,143.343 213.5,143.5C 211.72,149.317 211.387,155.151 212.5,161C 210.167,161.667 207.833,161.667 205.5,161C 206.667,160.5 207.5,159.667 208,158.5C 209.051,153.526 209.885,148.526 210.5,143.5C 207.708,143.452 205.875,144.785 205,147.5C 204.506,145.866 204.34,144.199 204.5,142.5 Z"/></g>
<g><path style="opacity:1" fill="#414141" d="M 251.5,152.5 C 252.658,155.609 254.325,158.442 256.5,161C 254.888,161.72 253.388,161.554 252,160.5C 252.054,155.866 249.887,153.533 245.5,153.5C 245.232,156.119 245.565,158.619 246.5,161C 244.5,161.667 242.5,161.667 240.5,161C 243.607,155.264 244.607,149.264 243.5,143C 247.9,142.022 252.067,142.522 256,144.5C 257.651,149.094 256.151,151.76 251.5,152.5 Z"/></g>
<g><path style="opacity:1" fill="#3e3e3e" d="M 262.5,143.5 C 266.981,142.352 271.648,142.185 276.5,143C 275.809,144.067 275.309,145.234 275,146.5C 274.626,145.584 274.126,144.75 273.5,144C 271.19,143.503 268.857,143.337 266.5,143.5C 266.167,146.167 265.833,148.833 265.5,151.5C 268.052,151.355 270.385,150.855 272.5,150C 271.91,151.509 271.244,153.009 270.5,154.5C 268.821,152.896 266.821,152.229 264.5,152.5C 264.425,155.206 264.092,157.873 263.5,160.5C 267.793,161.464 270.96,160.131 273,156.5C 272.981,158.107 272.815,159.774 272.5,161.5C 268.154,161.666 263.821,161.499 259.5,161C 262.558,155.327 263.558,149.494 262.5,143.5 Z"/></g>
<g><path style="opacity:1" fill="#404040" d="M 54.5,144.5 C 54.8966,143.475 55.5632,143.308 56.5,144C 57.9436,145.126 58.6102,146.626 58.5,148.5C 58.5695,153.606 56.5695,157.606 52.5,160.5C 52.1667,160.333 51.8333,160.167 51.5,160C 55.297,155.253 56.297,150.087 54.5,144.5 Z"/></g>
<g><path style="opacity:1" fill="#f2f2f2" d="M 166.5,143.5 C 173.536,142.603 175.203,145.103 171.5,151C 169.527,151.495 167.527,151.662 165.5,151.5C 165.833,148.833 166.167,146.167 166.5,143.5 Z"/></g>
<g><path style="opacity:1" fill="#404040" d="M 233.5,144.5 C 233.897,143.475 234.563,143.308 235.5,144C 236.944,145.126 237.61,146.626 237.5,148.5C 237.569,153.606 235.569,157.606 231.5,160.5C 231.167,160.333 230.833,160.167 230.5,160C 234.297,155.253 235.297,150.087 233.5,144.5 Z"/></g>
<g><path style="opacity:1" fill="#f1f1f1" d="M 251.5,152.5 C 249.833,152.5 248.167,152.5 246.5,152.5C 246.704,149.482 247.037,146.482 247.5,143.5C 255.017,143.714 256.35,146.714 251.5,152.5 Z"/></g>
<g><path style="opacity:1" fill="#424242" d="M 47.5,143.5 C 48.2389,143.369 48.9056,143.536 49.5,144C 47.9588,145.579 46.7922,147.413 46,149.5C 45.6334,153.435 45.4667,157.101 45.5,160.5C 44.5224,160.023 43.6891,159.357 43,158.5C 41.3787,152.475 42.8787,147.475 47.5,143.5 Z"/></g>
<g><path style="opacity:1" fill="#424242" d="M 226.5,143.5 C 227.239,143.369 227.906,143.536 228.5,144C 226.959,145.579 225.792,147.413 225,149.5C 224.633,153.435 224.467,157.101 224.5,160.5C 223.522,160.023 222.689,159.357 222,158.5C 220.379,152.475 221.879,147.475 226.5,143.5 Z"/></g>
<g><path style="opacity:1" fill="#efefef" d="M 149.5,146.5 C 150.768,148.905 151.435,151.572 151.5,154.5C 149.396,154.799 147.396,154.466 145.5,153.5C 147.098,151.302 148.431,148.969 149.5,146.5 Z"/></g>
<g><path style="opacity:1" fill="#f4f4f4" d="M 169.5,160.5 C 167.5,160.5 165.5,160.5 163.5,160.5C 164.092,157.873 164.425,155.206 164.5,152.5C 171.622,151.794 173.288,154.46 169.5,160.5 Z"/></g>
<g><path style="opacity:1" fill="#252123" d="M 56.5,266.5 C 57.2613,265.609 58.2613,264.942 59.5,264.5C 59.3378,266.631 60.6711,267.631 63.5,267.5C 63.281,268.675 63.6143,269.675 64.5,270.5C 67.0941,268.302 70.0941,267.302 73.5,267.5C 73.6782,270.879 73.6782,274.045 73.5,277C 74.9961,277.507 76.1627,277.007 77,275.5C 78.7838,277.066 80.7838,278.399 83,279.5C 83.2514,278.014 84.5847,277.014 87,276.5C 88.2051,277.071 89.3717,277.738 90.5,278.5C 89.3192,280.198 89.3192,281.865 90.5,283.5C 92.2705,282.965 92.6039,282.131 91.5,281C 93.196,279.795 94.8627,279.295 96.5,279.5C 138.143,297.094 178.81,294.927 218.5,273C 239.248,260.925 255.081,244.425 266,223.5C 241.137,259.199 206.97,280.032 163.5,286C 152.167,286.667 140.833,286.667 129.5,286C 125.335,285.295 121.335,284.461 117.5,283.5C 124.435,282.769 124.769,281.936 118.5,281C 120.9,280.256 123.233,279.423 125.5,278.5C 181.664,286.49 225.497,267.157 257,220.5C 257.982,219.241 258.315,217.908 258,216.5C 226.001,261.073 182.501,280.573 127.5,275C 119.332,273.625 111.332,271.625 103.5,269C 100.177,267.96 97.1766,266.46 94.5,264.5C 94.9382,264.565 95.2716,264.399 95.5,264C 92.5363,263.16 92.203,262.16 94.5,261C 94.1667,260.667 93.8333,260.333 93.5,260C 96.3615,260.03 98.6948,259.197 100.5,257.5C 145.346,277.64 187.013,272.474 225.5,242C 235.709,232.997 243.542,222.497 249,210.5C 224.799,245.359 191.299,263.692 148.5,265.5C 133.425,265.935 119.092,263.268 105.5,257.5C 106.077,255.348 107.244,255.015 109,256.5C 113.277,255.717 113.444,254.217 109.5,252C 110.056,251.617 110.389,251.117 110.5,250.5C 150.265,266.047 186.598,260.214 219.5,233C 227.649,225.125 234.149,216.291 239,206.5C 212.275,242.266 176.442,258.1 131.5,254C 122.636,252.873 114.303,250.373 106.5,246.5C 107.774,245.811 107.774,244.977 106.5,244C 107.5,243.667 108.5,243.333 109.5,243C 109.53,241.571 109.197,240.071 108.5,238.5C 145.993,255.365 180.659,250.865 212.5,225C 219.993,217.782 225.826,209.615 230,200.5C 205.55,233.448 172.717,247.614 131.5,243C 124.904,241.723 118.57,239.889 112.5,237.5C 113.728,235.99 113.728,234.49 112.5,233C 113.085,231.698 113.751,230.531 114.5,229.5C 152.944,245.314 186.111,237.98 214,207.5C 215.752,204.328 217.752,201.328 220,198.5C 220.692,197.563 220.525,196.897 219.5,196.5C 220.853,195.133 220.519,194.133 218.5,193.5C 149.874,194.33 81.2072,194.83 12.5,195C 11.2532,196.458 11.2532,197.958 12.5,199.5C 11.7573,200.182 11.0906,200.849 10.5,201.5C 9.51556,198.949 8.51556,196.282 7.5,193.5C 102.167,192.167 196.833,192.167 291.5,193.5C 272.777,247.05 235.777,280.55 180.5,294C 142.973,302.018 107.306,297.018 73.5,279C 67.4101,275.301 61.7434,271.134 56.5,266.5 Z"/></g>
<g><path style="opacity:1" fill="#241f21" d="M 219.5,196.5 C 198.212,223.666 170.212,235.833 135.5,233C 126.961,231.709 118.795,229.209 111,225.5C 110.5,225.667 110,225.833 109.5,226C 111.584,226.697 113.251,227.864 114.5,229.5C 113.751,230.531 113.085,231.698 112.5,233C 113.728,234.49 113.728,235.99 112.5,237.5C 110.634,236.986 108.8,236.32 107,235.5C 106.5,235.667 106,235.833 105.5,236C 106.942,236.377 107.942,237.21 108.5,238.5C 109.197,240.071 109.53,241.571 109.5,243C 108.5,243.333 107.5,243.667 106.5,244C 107.774,244.977 107.774,245.811 106.5,246.5C 103.847,245.324 101.181,244.491 98.5,244C 102.367,246.433 106.367,248.6 110.5,250.5C 110.389,251.117 110.056,251.617 109.5,252C 113.444,254.217 113.277,255.717 109,256.5C 107.244,255.015 106.077,255.348 105.5,257.5C 101.303,256.404 97.3028,254.738 93.5,252.5C 92.3044,252.846 92.3044,253.346 93.5,254C 95.8599,255.18 98.1932,256.347 100.5,257.5C 98.6948,259.197 96.3615,260.03 93.5,260C 93.8333,260.333 94.1667,260.667 94.5,261C 92.203,262.16 92.5363,263.16 95.5,264C 95.2716,264.399 94.9382,264.565 94.5,264.5C 92.742,264.123 91.0754,263.456 89.5,262.5C 88.3044,262.846 88.3044,263.346 89.5,264C 101.048,270.285 113.048,275.119 125.5,278.5C 123.233,279.423 120.9,280.256 118.5,281C 124.769,281.936 124.435,282.769 117.5,283.5C 105.566,281.299 94.2331,277.299 83.5,271.5C 82.3044,271.846 82.3044,272.346 83.5,273C 87.8599,275.18 92.1932,277.347 96.5,279.5C 94.8627,279.295 93.196,279.795 91.5,281C 92.6039,282.131 92.2705,282.965 90.5,283.5C 89.3192,281.865 89.3192,280.198 90.5,278.5C 89.3717,277.738 88.2051,277.071 87,276.5C 84.5847,277.014 83.2514,278.014 83,279.5C 80.7838,278.399 78.7838,277.066 77,275.5C 76.1627,277.007 74.9961,277.507 73.5,277C 73.6782,274.045 73.6782,270.879 73.5,267.5C 70.0941,267.302 67.0941,268.302 64.5,270.5C 63.6143,269.675 63.281,268.675 63.5,267.5C 60.6711,267.631 59.3378,266.631 59.5,264.5C 58.2613,264.942 57.2613,265.609 56.5,266.5C 34.9624,249.284 19.6291,227.618 10.5,201.5C 11.0906,200.849 11.7573,200.182 12.5,199.5C 11.2532,197.958 11.2532,196.458 12.5,195C 81.2072,194.83 149.874,194.33 218.5,193.5C 220.519,194.133 220.853,195.133 219.5,196.5 Z"/></g>
<g><path style="opacity:1" fill="#ecebeb" d="M 219.5,196.5 C 220.525,196.897 220.692,197.563 220,198.5C 217.752,201.328 215.752,204.328 214,207.5C 186.111,237.98 152.944,245.314 114.5,229.5C 113.251,227.864 111.584,226.697 109.5,226C 110,225.833 110.5,225.667 111,225.5C 118.795,229.209 126.961,231.709 135.5,233C 170.212,235.833 198.212,223.666 219.5,196.5 Z"/></g>
<g><path style="opacity:1" fill="#e7e5e5" d="M 108.5,238.5 C 107.942,237.21 106.942,236.377 105.5,236C 106,235.833 106.5,235.667 107,235.5C 108.8,236.32 110.634,236.986 112.5,237.5C 118.57,239.889 124.904,241.723 131.5,243C 172.717,247.614 205.55,233.448 230,200.5C 225.826,209.615 219.993,217.782 212.5,225C 180.659,250.865 145.993,255.365 108.5,238.5 Z"/></g>
<g><path style="opacity:1" fill="#e6e4e5" d="M 110.5,250.5 C 106.367,248.6 102.367,246.433 98.5,244C 101.181,244.491 103.847,245.324 106.5,246.5C 114.303,250.373 122.636,252.873 131.5,254C 176.442,258.1 212.275,242.266 239,206.5C 234.149,216.291 227.649,225.125 219.5,233C 186.598,260.214 150.265,266.047 110.5,250.5 Z"/></g>
<g><path style="opacity:1" fill="#eae8e9" d="M 100.5,257.5 C 98.1932,256.347 95.8599,255.18 93.5,254C 92.3044,253.346 92.3044,252.846 93.5,252.5C 97.3028,254.738 101.303,256.404 105.5,257.5C 119.092,263.268 133.425,265.935 148.5,265.5C 191.299,263.692 224.799,245.359 249,210.5C 243.542,222.497 235.709,232.997 225.5,242C 187.013,272.474 145.346,277.64 100.5,257.5 Z"/></g>
<g><path style="opacity:1" fill="#e8e6e7" d="M 96.5,279.5 C 92.1932,277.347 87.8599,275.18 83.5,273C 82.3044,272.346 82.3044,271.846 83.5,271.5C 94.2331,277.299 105.566,281.299 117.5,283.5C 121.335,284.461 125.335,285.295 129.5,286C 140.833,286.667 152.167,286.667 163.5,286C 206.97,280.032 241.137,259.199 266,223.5C 255.081,244.425 239.248,260.925 218.5,273C 178.81,294.927 138.143,297.094 96.5,279.5 Z"/></g>
<g><path style="opacity:1" fill="#ebe9ea" d="M 125.5,278.5 C 113.048,275.119 101.048,270.285 89.5,264C 88.3044,263.346 88.3044,262.846 89.5,262.5C 91.0754,263.456 92.742,264.123 94.5,264.5C 97.1766,266.46 100.177,267.96 103.5,269C 111.332,271.625 119.332,273.625 127.5,275C 182.501,280.573 226.001,261.073 258,216.5C 258.315,217.908 257.982,219.241 257,220.5C 225.497,267.157 181.664,286.49 125.5,278.5 Z"/></g>
</svg>
